<svg version="1.1" id="Layer_1" xmlns="http://www.w3.org/2000/svg" xmlns:xlink="http://www.w3.org/1999/xlink" x="0px" y="0px"
	 width="100%" viewBox="0 0 1024 672" enable-background="new 0 0 1024 672" xml:space="preserve">
<path fill="#000000" opacity="1.000000" stroke="none" 
	d="
M569.669128,466.947937 
	C571.277527,461.923309 573.345520,457.598907 576.556458,453.864594 
	C577.593262,452.658783 579.308472,451.470093 578.247070,449.589569 
	C577.278442,447.873322 575.323730,448.277100 573.697449,448.255493 
	C569.531982,448.200165 565.365479,448.220062 561.199341,448.220734 
	C537.702393,448.224457 514.205444,448.212189 490.708649,448.270996 
	C488.668610,448.276123 486.322510,447.514923 484.220459,450.338043 
	C493.763916,461.476105 498.449951,474.286926 494.356720,489.238892 
	C491.838135,498.438812 486.542664,505.766388 479.006683,511.427979 
	C465.047394,521.915283 444.735962,521.644165 430.525848,510.744843 
	C421.328369,503.690308 416.187286,494.088715 414.925415,482.693024 
	C413.660553,471.270020 418.105164,461.270081 424.473755,452.082855 
	C422.269318,450.609009 420.836517,451.915100 419.419525,452.554749 
	C409.565643,457.002838 399.328888,458.221130 388.678406,456.541046 
	C381.627136,455.428741 380.449341,456.416412 380.364746,463.476501 
	C380.314850,467.645264 378.870697,470.984558 375.119598,473.008881 
	C372.858643,474.228973 370.427002,474.981415 368.073730,473.183502 
	C365.826935,471.466858 365.390747,469.074188 365.911346,466.445801 
	C366.259186,464.689728 366.702881,462.952606 367.192932,460.818329 
	C363.868835,462.292145 361.125977,463.848175 358.181244,464.729950 
	C354.289703,465.895203 350.309265,466.046722 346.654633,463.592712 
	C344.711548,462.287933 342.674042,461.194550 340.214081,461.114624 
	C338.670532,461.064423 336.990143,460.713654 337.036713,458.729095 
	C337.078583,456.944031 338.647797,456.421234 340.135193,455.962952 
	C346.907959,453.876404 353.724579,450.921265 359.923645,457.343414 
	C360.093781,457.519684 360.795197,457.183136 361.223297,457.091217 
	C361.664825,455.168213 360.250946,454.422089 359.126923,454.090485 
	C353.855713,452.535370 352.775360,448.390747 352.076843,443.723419 
	C351.684021,441.098663 352.514252,440.122314 355.039246,439.727509 
	C360.490295,438.875275 360.667175,438.391113 357.841278,433.605042 
	C354.938660,428.689117 352.825928,423.486816 351.566956,417.899658 
	C350.558411,413.424011 348.239502,411.045319 343.007263,412.091125 
	C337.345306,413.222809 333.540527,410.976715 331.565247,406.376434 
	C329.426331,401.394928 330.597748,398.811218 335.876587,397.847076 
	C338.145813,397.432648 339.064484,396.396179 339.284241,394.333344 
	C339.372498,393.505127 339.466248,392.677399 339.550751,391.848785 
	C339.896027,388.463562 341.971130,386.132935 344.979309,385.410217 
	C347.655640,384.767242 348.796478,387.579803 350.106171,389.444641 
	C350.765381,390.383179 351.191528,391.485382 351.736328,392.539154 
	C356.132385,387.912628 355.913696,385.833557 350.698151,382.778900 
	C349.259216,381.936157 348.448181,380.801941 348.574982,379.135529 
	C348.695374,377.553223 349.764435,376.779846 351.216919,376.622223 
	C352.430573,376.490540 353.478790,376.258453 354.197845,375.138641 
	C354.814087,374.179016 355.393921,373.095490 356.791351,373.072510 
	C358.974152,373.574188 358.266571,376.365448 360.611420,377.428741 
	C363.576477,374.909149 366.739258,372.221558 370.920288,368.668701 
	C363.810364,367.843323 358.170990,368.444489 352.902649,370.831696 
	C347.497803,373.280884 341.718658,372.831238 338.146973,368.977997 
	C336.523926,367.227020 335.098419,365.270996 336.085480,362.710693 
	C337.060272,360.182373 339.307709,359.487610 341.762604,359.410461 
	C343.086090,359.368866 344.425110,359.488403 345.742523,359.652374 
	C348.705261,360.021179 350.080658,358.999420 349.885681,355.788300 
	C349.702515,352.771118 348.344574,348.671814 352.130920,347.423126 
	C355.472504,346.321106 357.808105,349.789825 359.716980,352.139740 
	C362.058411,355.022186 365.071167,357.093536 365.876770,361.709015 
	C366.515320,365.367371 372.179443,364.301086 376.107513,364.748352 
	C375.936371,361.943573 374.734985,361.239746 372.508606,361.531982 
	C369.127411,361.975800 368.972321,359.609985 369.428040,357.372253 
	C370.182800,353.665771 376.838318,350.721771 379.934540,352.971344 
	C383.672760,355.687378 388.637238,357.123322 389.963837,362.703583 
	C390.438446,364.700134 392.578186,364.098389 393.676453,362.269501 
	C398.771149,353.785614 398.808868,353.777832 396.398346,344.076843 
	C386.807831,305.481171 377.198547,266.890137 367.564972,228.305145 
	C367.216797,226.910461 367.095032,225.343231 365.197113,223.814423 
	C364.316071,228.345459 362.696075,232.159912 358.643524,234.372040 
	C355.374603,236.156403 353.334076,235.423859 352.475861,231.738388 
	C351.888092,229.214447 351.881836,226.105408 353.552216,224.577637 
	C356.657227,221.737732 356.910675,216.930481 361.102966,214.908310 
	C363.705109,213.653152 362.307251,211.053268 361.764923,209.070679 
	C361.163513,206.871933 359.223389,207.217926 357.602936,207.517090 
	C355.274841,207.946899 353.095551,208.751984 352.074829,211.179581 
	C355.780884,217.914185 355.485992,218.372803 344.666138,222.008911 
	C346.373505,218.908264 342.998077,215.662445 346.091400,212.849792 
	C346.550232,212.432587 345.747894,211.303757 344.925018,210.929779 
	C343.855835,210.443832 342.964600,210.795853 342.352905,211.745987 
	C341.272644,213.423920 340.194885,215.106583 339.199249,216.835159 
	C337.359467,220.029282 336.993744,222.870895 340.459076,225.502823 
	C344.741638,228.755447 344.831329,233.072067 342.557861,237.587067 
	C340.455536,241.762268 337.072998,242.388351 333.723541,239.070587 
	C331.192413,236.563370 329.390350,233.595749 329.689667,229.755051 
	C329.786713,228.509583 330.403870,227.098969 328.979584,225.970825 
	C326.327545,226.126999 326.309967,228.548172 325.641266,230.226196 
	C324.309326,233.568512 322.442230,236.521774 319.426514,238.448944 
	C315.489838,240.964676 312.129181,238.923294 311.961426,234.268845 
	C311.744080,228.237244 315.800873,224.249619 318.816254,219.813385 
	C319.737640,218.457855 321.654510,219.409836 323.089661,219.627441 
	C329.532501,220.604401 331.480347,219.571091 335.012665,213.139282 
	C334.512817,212.226532 333.587769,212.198883 332.831665,212.402725 
	C322.536224,215.178329 313.028687,219.295471 306.297913,228.119263 
	C304.530609,230.436157 304.195770,232.624893 305.333588,235.505325 
	C308.370361,243.193024 304.692535,251.458908 297.117126,254.275345 
	C293.922943,255.462906 293.003235,253.103943 293.676636,250.763367 
	C295.276123,245.203690 294.475769,239.043747 297.946136,233.955154 
	C298.825378,232.665939 298.943329,231.294754 297.911652,229.791641 
	C292.602417,222.056503 293.079559,219.900482 301.388245,214.973877 
	C298.217712,213.559143 295.809875,214.335205 293.331665,215.891830 
	C284.962311,221.148819 279.957825,220.749176 272.810638,214.019836 
	C270.106781,211.474045 272.209778,209.742111 274.576172,208.880463 
	C278.768890,207.353806 283.139465,206.435867 287.805511,206.696411 
	C288.036682,202.727890 285.212524,199.848389 285.474731,196.268768 
	C285.581665,194.808853 284.967285,193.149490 286.542206,192.190079 
	C287.979309,191.314590 288.915405,192.730865 290.100586,193.182846 
	C296.858368,195.759918 299.842194,201.022385 301.700806,207.677200 
	C302.777649,211.532791 306.379181,210.880371 310.140839,209.864731 
	C306.805054,206.312241 305.652557,202.619171 308.121185,198.704224 
	C306.644440,196.795135 304.837250,197.492645 303.265594,197.332352 
	C295.937256,196.584991 291.022156,191.059280 291.333588,183.854721 
	C291.639252,176.784042 296.694000,171.739456 303.936066,171.709839 
	C323.933105,171.628021 343.930786,171.719360 363.928070,171.677109 
	C367.764954,171.669006 371.745544,172.489136 374.149170,175.035980 
	C378.769562,179.931625 384.451263,181.108871 390.977448,181.612259 
	C389.403503,178.018982 387.067535,174.617966 387.689758,170.273697 
	C388.535156,164.371399 391.100922,162.930695 396.046692,166.031204 
	C401.039703,169.161331 402.817535,173.864532 400.391205,179.909470 
	C398.451263,184.742569 400.394135,187.751251 403.992065,191.206482 
	C405.466156,188.111191 404.502808,185.285690 404.701569,182.620193 
	C405.028198,178.240875 410.609100,170.469086 414.658325,169.200790 
	C417.705658,168.246292 418.569000,170.529800 418.976562,172.662888 
	C419.497253,175.387970 419.743134,177.853989 423.313843,178.358475 
	C426.963440,178.874100 429.740143,178.879349 432.307251,175.219879 
	C436.498657,169.244934 444.551056,169.682434 449.359772,175.799103 
	C451.222534,178.168579 452.985046,179.437927 456.217010,179.750565 
	C465.823181,180.679794 471.088379,192.897659 465.562805,200.743286 
	C464.716888,201.944351 463.222565,202.875732 463.449066,204.554092 
	C463.694580,206.372711 464.163757,208.586639 465.880676,209.231857 
	C468.361847,210.164261 470.261658,208.140732 471.824524,206.534546 
	C473.370148,204.946030 473.486816,202.638626 473.844147,200.479935 
	C474.602417,195.899231 477.333252,192.909760 481.894196,192.022949 
	C485.511078,191.319672 489.077942,191.987381 489.104065,196.510056 
	C489.120605,199.377777 494.360870,200.739746 491.218384,203.741867 
	C489.413849,205.465820 486.477966,205.981140 484.098541,207.137573 
	C482.822723,207.757645 481.117249,207.729538 480.392548,209.362976 
	C481.577332,211.144745 483.388214,210.475922 484.941681,210.584686 
	C491.595551,211.050491 498.250366,210.404495 504.912292,210.433945 
	C571.225159,210.727097 637.539917,210.593140 703.854187,210.588242 
	C719.582764,210.587067 728.140686,222.117142 723.761963,237.331970 
	C720.816406,247.566864 717.898682,257.809906 715.018738,268.063446 
	C714.400208,270.265594 713.997742,272.528442 713.481506,274.826447 
	C716.159058,275.366333 715.766724,272.285004 717.953369,272.256439 
	C722.197083,274.825317 725.492432,278.551788 726.749146,284.295074 
	C729.536682,282.177216 728.622070,280.453949 727.571716,278.749573 
	C725.998779,276.197021 724.226196,273.751770 722.839050,271.103485 
	C719.463928,264.660095 722.520203,260.128265 729.742493,260.289337 
	C733.776978,260.379364 735.491272,256.316132 738.511902,254.491379 
	C739.949463,253.622986 740.560303,251.271179 742.876770,252.004486 
	C744.988464,252.672958 745.195679,254.611237 745.525024,256.432739 
	C745.847473,258.216400 746.226746,259.989838 746.642944,262.078125 
	C750.156189,261.151031 751.474731,259.721222 749.797241,256.068115 
	C745.669495,247.079041 748.279602,241.423721 757.628967,238.318680 
	C760.268311,237.442123 760.759827,239.228012 761.237732,241.113007 
	C762.418762,245.771729 761.684326,250.269836 759.866760,255.121246 
	C765.024902,253.096130 769.943604,252.133621 774.975342,254.104126 
	C776.646179,254.758438 778.696472,255.021942 779.103210,257.239380 
	C779.512939,259.472778 777.752014,260.442017 776.307251,261.555603 
	C770.824829,265.781158 765.432007,268.552094 758.803528,263.183807 
	C755.661987,260.639496 748.900940,264.491394 746.132202,269.980988 
	C748.338928,271.119446 750.607849,271.264191 752.746033,270.157715 
	C754.664978,269.164673 756.243164,268.992340 757.504639,270.922211 
	C758.842712,272.969238 757.611694,274.682404 756.089722,275.624054 
	C750.955383,278.800720 753.118530,285.741455 748.776001,289.318634 
	C747.970947,289.981812 749.044250,291.067139 749.686340,291.860474 
	C753.956665,297.137085 754.341492,300.800964 750.956238,303.349426 
	C746.520386,306.688812 739.993652,305.138367 736.698608,299.960022 
	C735.859131,298.640686 735.605408,296.637146 732.953430,297.073883 
	C733.412170,299.796539 733.811157,302.505554 734.344543,305.187866 
	C734.614258,306.543915 735.000000,307.828156 733.496948,308.703003 
	C732.282227,309.410034 731.282837,308.713837 730.232727,308.206879 
	C727.089539,306.689484 724.015381,304.976166 720.755798,303.766235 
	C716.627869,302.234039 715.196655,303.493988 715.943298,307.697296 
	C716.395935,310.245270 716.192932,312.654236 715.210693,315.036621 
	C714.718079,316.231201 713.859863,317.513092 715.245056,318.670746 
	C716.438232,319.667969 717.789856,319.274384 719.039062,318.804565 
	C719.963013,318.457092 720.889832,317.993469 721.661804,317.386230 
	C725.855774,314.087433 730.761108,313.658844 735.832886,313.563324 
	C739.427429,313.495636 739.855835,315.443298 738.844604,318.058472 
	C737.672791,321.088989 737.675110,325.560181 736.583313,327.056183 
	C732.869385,332.145050 735.669189,336.770752 735.485718,341.527344 
	C735.363037,344.706268 733.304138,345.464539 730.638123,344.787628 
	C725.955017,343.598511 722.115173,340.708405 721.154541,336.097443 
	C720.175171,331.396851 717.566101,329.933289 713.186829,329.444000 
	C710.045593,332.752594 712.583923,335.350433 714.954834,337.118927 
	C720.508240,341.261200 720.680786,346.855499 720.127258,352.831543 
	C719.829407,356.046814 718.387451,356.926605 715.461060,355.243500 
	C711.450562,352.936859 708.563293,349.606659 706.605469,345.674011 
	C704.151672,345.322357 703.045349,347.055664 701.579590,348.033997 
	C698.846802,349.858093 697.205200,349.218109 696.761108,345.943237 
	C696.179993,341.657959 696.732300,337.653961 699.697815,334.215454 
	C701.729248,331.859802 702.630249,329.403412 699.771301,326.985748 
	C697.970093,327.360382 697.821289,328.797607 697.477905,330.034637 
	C693.473877,344.457977 689.071350,358.788086 685.634460,373.345947 
	C682.927734,384.811127 672.601501,391.274780 661.655518,391.163483 
	C645.659058,391.000793 629.655029,391.292633 613.665222,390.918854 
	C607.868103,390.783356 602.195190,392.483490 596.343689,391.395142 
	C593.823975,390.926483 592.194275,392.899078 591.317627,395.376160 
	C589.511658,400.479034 586.732056,401.204865 582.590149,397.700043 
	C581.586365,396.850677 580.835022,395.707214 579.941223,394.722961 
	C577.790771,392.354919 575.798279,391.608582 573.478333,394.741913 
	C572.223511,396.436707 570.408203,397.766571 568.692383,399.057251 
	C566.513184,400.696533 564.494385,401.058624 562.021912,398.916473 
	C559.167297,396.443329 554.699219,396.355286 552.727966,392.157806 
	C551.913757,390.424194 549.722473,391.885986 548.458923,393.002502 
	C545.635132,395.497681 543.049500,395.780640 540.213806,392.850891 
	C537.744995,390.300140 534.855103,390.529816 532.093140,392.592133 
	C529.785828,394.314972 527.243103,395.528961 524.432983,396.106384 
	C522.781433,396.445709 520.882874,396.698700 519.969971,394.882660 
	C518.113770,391.189941 514.848999,391.107391 511.432800,391.106323 
	C483.436646,391.097656 455.440521,391.059692 427.444397,391.082703 
	C425.641632,391.084198 423.576324,391.040466 422.094177,391.855804 
	C419.441925,393.314850 417.124115,392.949982 414.461914,392.113556 
	C406.119354,389.492401 397.506226,394.634918 395.332275,403.358093 
	C393.142273,412.145660 397.906677,420.037476 406.677765,421.845886 
	C409.262054,422.378693 411.963654,422.558380 414.609497,422.543671 
	C441.933807,422.391754 469.267365,422.212280 496.581573,422.342285 
	C539.571472,422.546814 582.561035,422.391663 625.550171,422.563843 
	C637.709045,422.612549 649.870117,422.147797 662.028809,422.206635 
	C667.132080,422.231293 672.517273,422.136353 676.309937,426.661377 
	C679.731628,430.743744 680.306519,435.360870 678.489929,440.243073 
	C676.408020,445.838196 671.746033,447.972809 666.283264,448.159302 
	C658.460571,448.426361 650.621277,448.188110 642.789185,448.213898 
	C640.836975,448.220337 638.771667,447.880188 636.623901,449.689392 
	C652.510010,470.443665 654.571472,491.413727 633.730103,509.674103 
	C619.255676,522.356079 599.902771,522.132507 585.020630,511.869720 
	C570.829712,502.083649 564.685303,484.369019 569.669128,466.947937 
M595.678833,245.479431 
	C596.398315,236.678482 596.066956,236.340317 587.049316,236.335709 
	C576.725708,236.330444 566.401733,236.243729 556.078552,236.302185 
	C550.617004,236.333115 549.329041,237.659973 549.293701,243.132309 
	C549.231384,252.789520 549.243530,262.447479 549.279053,272.104950 
	C549.300354,277.906952 550.790405,279.542053 556.690125,279.529602 
	C566.664246,279.508514 576.637390,279.173706 586.611938,279.085968 
	C590.688904,279.050079 592.523071,277.359497 592.847656,273.136047 
	C593.535278,264.188110 594.673645,255.274780 595.678833,245.479431 
M498.362091,259.271820 
	C498.887787,264.230774 499.381683,269.193359 499.950378,274.147369 
	C500.330444,277.458496 502.325378,279.460785 505.587433,279.323914 
	C516.078186,278.883728 526.553162,279.360901 537.035095,279.416229 
	C542.999878,279.447723 543.915710,278.138153 543.939819,272.195465 
	C543.978333,262.703400 543.915344,253.210876 543.888489,243.718567 
	C543.871155,237.587463 542.861145,236.463531 536.632019,236.357788 
	C528.973206,236.227768 521.310730,236.325363 513.650696,236.244492 
	C510.056732,236.206543 506.487762,235.921448 505.522125,240.714508 
	C505.282593,241.903473 504.081482,242.826096 502.939606,242.810959 
	C496.348145,242.723633 497.092896,247.263397 497.391479,251.461517 
	C497.556061,253.775589 497.982025,256.071075 498.362091,259.271820 
M598.350098,275.048950 
	C598.589111,278.426788 600.755920,279.791748 603.757935,279.551880 
	C613.399170,278.781433 623.028442,279.821411 632.663757,279.538574 
	C637.399231,279.399567 639.875244,277.237885 640.680725,272.487457 
	C642.317322,262.835022 644.250610,253.232254 646.112000,243.618759 
	C647.080505,238.616898 645.779663,236.485794 640.872925,236.404663 
	C629.733215,236.220444 618.588745,236.339081 607.446472,236.288605 
	C603.566101,236.271027 601.705750,238.173218 601.364929,241.978516 
	C600.402344,252.728729 599.347778,263.470734 598.350098,275.048950 
M399.353638,249.266037 
	C401.477356,257.796234 403.597137,266.327393 405.727173,274.856018 
	C406.359070,277.386230 407.187775,279.590912 410.503906,279.570038 
	C421.128326,279.503174 431.755554,279.681061 442.377411,279.505127 
	C447.481628,279.420624 448.318695,278.019073 447.287720,272.811035 
	C445.773712,265.162811 444.147278,257.535553 442.742310,249.867554 
	C441.990692,245.765503 441.508179,241.753891 435.774811,242.162170 
	C434.985016,242.218399 433.702362,241.419510 433.358643,240.684219 
	C431.232147,236.135773 427.295929,236.165878 423.187286,236.249695 
	C418.384674,236.347687 413.578339,236.276550 408.773682,236.259094 
	C396.050598,236.212875 396.050629,236.208633 399.353638,249.266037 
M691.320618,257.951019 
	C692.685669,253.147934 694.144897,248.369141 695.390137,243.535217 
	C696.730835,238.330490 695.625305,236.565109 690.307434,236.443542 
	C679.815247,236.203690 669.314514,236.309341 658.817444,236.333771 
	C655.439636,236.341614 653.039001,237.850586 652.334229,241.352936 
	C650.529175,250.323120 648.769104,259.302338 646.985901,268.276886 
	C646.647095,269.981781 646.414307,272.213715 648.213867,272.661560 
	C651.877197,273.573181 653.590271,277.131470 656.656982,278.367218 
	C661.018860,280.124817 661.502686,273.936157 665.024170,273.369995 
	C665.450378,273.301483 665.791809,272.759216 666.191223,272.461639 
	C670.185608,269.485657 672.271667,270.047852 672.877319,274.908020 
	C673.430969,279.351257 675.964478,280.017212 679.467896,279.594971 
	C683.585388,279.098785 685.933167,276.376282 687.100281,272.651093 
	C688.542419,268.047943 689.755310,263.373016 691.320618,257.951019 
M494.054871,276.515106 
	C494.890259,274.596649 494.694946,272.596619 494.483246,270.608124 
	C493.480347,261.187317 492.465546,251.767731 491.437225,242.349655 
	C491.180908,240.002151 490.986755,237.287842 488.028748,236.982162 
	C484.738373,236.642166 485.357788,239.647888 484.847839,241.592422 
	C483.609039,246.315720 480.887543,247.362671 476.705566,244.747971 
	C475.336761,243.892151 474.286560,242.382690 472.408264,242.575470 
	C467.852356,247.549149 464.789398,247.069366 461.816864,240.941208 
	C461.599701,240.493515 461.467651,240.005264 461.265137,239.549591 
	C459.651184,235.918213 457.251465,235.687546 454.731750,238.422241 
	C452.925049,240.383133 451.277893,242.422668 448.988281,243.891174 
	C447.380310,244.922485 447.381775,246.540253 447.736877,248.343582 
	C449.341095,256.489990 450.984100,264.634949 452.285126,272.832520 
	C453.046539,277.630127 455.334930,279.800018 460.268646,279.634521 
	C469.752411,279.316406 479.245209,279.273315 488.733582,279.083435 
	C490.565613,279.046814 492.445984,278.996521 494.054871,276.515106 
M506.949554,284.183472 
	C502.152069,283.965729 500.914001,286.621429 501.410980,290.865326 
	C502.396210,299.278748 503.423828,307.690979 504.167389,316.127228 
	C504.529907,320.240234 506.289978,322.057617 510.477966,321.994080 
	C519.633118,321.855164 528.793579,321.835266 537.948181,321.988159 
	C542.245972,322.059906 543.981812,320.192078 543.941956,316.023743 
	C543.862366,307.699707 543.967834,299.374115 543.924255,291.049500 
	C543.893250,285.128784 542.948792,284.202179 536.826599,284.171906 
	C527.169983,284.124146 517.512878,284.170105 506.949554,284.183472 
M549.277466,313.206787 
	C549.476196,321.379822 550.092590,321.975555 558.225708,321.955719 
	C565.881714,321.937012 573.540039,321.819672 581.192932,321.968475 
	C585.769043,322.057434 588.064148,319.735840 588.535889,315.553101 
	C589.466797,307.298309 590.286438,299.026154 590.904602,290.742706 
	C591.290466,285.570862 589.919128,284.247833 584.602356,284.206329 
	C575.282227,284.133514 565.960632,284.149506 556.640381,284.219391 
	C550.922363,284.262299 549.383423,285.856384 549.310852,291.795227 
	C549.227417,298.618408 549.283691,305.443268 549.277466,313.206787 
M454.804382,319.485199 
	C454.999115,318.516510 455.501617,317.493256 455.341095,316.587555 
	C453.690887,307.276794 451.960205,297.979980 450.192169,288.690643 
	C449.505035,285.080292 447.042908,284.068542 443.602081,284.106293 
	C433.797638,284.213959 423.988251,284.275085 414.186798,284.070099 
	C409.766113,283.977631 408.466431,285.881805 409.422058,289.832916 
	C411.645020,299.023804 414.018768,308.178986 416.158997,317.388733 
	C416.997498,320.996857 419.070770,322.082367 422.576050,322.015411 
	C431.381500,321.847198 440.192047,321.958008 449.000366,321.916962 
	C450.970520,321.907806 453.061279,322.111572 454.804382,319.485199 
M461.341766,318.059265 
	C462.016815,321.054993 464.165039,321.941833 466.919708,321.939056 
	C475.565613,321.930420 484.212097,321.850830 492.857147,321.930603 
	C496.860138,321.967499 498.930084,320.058533 498.615814,316.205200 
	C497.874481,307.115387 496.859894,298.047852 495.961487,288.970764 
	C495.615265,285.472534 493.524780,284.166351 490.201141,284.175995 
	C480.225067,284.204926 470.248840,284.173279 460.272675,284.160370 
	C456.293854,284.155212 454.833588,286.363678 455.542664,289.982147 
	C457.328827,299.097229 459.279205,308.180145 461.341766,318.059265 
M429.579468,327.023956 
	C427.749084,327.026520 425.918671,327.040863 424.088379,327.029144 
	C420.238617,327.004517 419.066925,329.058380 419.891083,332.538147 
	C421.997253,341.430786 424.076385,350.331055 426.323425,359.188416 
	C427.109497,362.286865 429.050751,364.692932 432.534851,364.747192 
	C441.184509,364.881927 449.840576,364.950958 458.487366,364.752472 
	C462.030579,364.671143 463.973236,362.579529 463.265930,358.753357 
	C461.696381,350.262848 460.166107,341.764618 458.525360,333.287872 
	C457.743011,329.246002 455.624176,326.824951 451.019989,326.965179 
	C444.204041,327.172791 437.377197,327.023224 429.579468,327.023956 
M477.784027,364.885071 
	C483.949097,364.889587 490.117126,364.778809 496.278320,364.935669 
	C501.082916,365.057983 503.032684,362.715485 502.641846,358.193024 
	C501.939972,350.071625 501.148804,341.957611 500.345001,333.845490 
	C499.872955,329.081207 497.372894,326.818146 492.390472,326.967560 
	C485.065247,327.187225 477.728546,326.990448 470.397736,327.066681 
	C464.995514,327.122894 463.487213,328.771027 464.328247,334.199615 
	C465.576019,342.253693 467.100922,350.265137 468.534790,358.289917 
	C469.362854,362.924347 471.967316,365.365967 477.784027,364.885071 
M506.238312,338.638794 
	C506.634216,343.938141 506.919373,349.249146 507.475098,354.531677 
	C507.733032,356.983368 508.242310,359.487610 509.138306,361.771606 
	C510.080139,364.172485 512.234863,365.236969 514.851868,364.692108 
	C517.510498,364.138550 516.856018,362.067261 516.611694,360.287231 
	C516.291687,357.955750 517.339600,356.815002 519.607605,356.722076 
	C525.222168,356.491974 530.603333,357.031860 534.890259,361.299103 
	C535.944702,362.348663 537.026672,363.465332 538.305786,364.170715 
	C539.970093,365.088531 541.564880,364.409485 542.765564,363.044495 
	C543.880737,361.776794 543.848694,360.303680 543.128052,358.849640 
	C542.377380,357.334930 541.206726,357.298889 539.768250,357.873138 
	C537.942749,358.601898 535.989624,358.938873 535.314209,356.458405 
	C534.713806,354.253510 536.223816,353.042236 538.105713,352.420807 
	C542.663086,350.916138 544.010986,347.448486 543.986694,343.094391 
	C543.967224,339.600281 543.851074,336.104858 543.916809,332.612610 
	C543.992615,328.582062 542.025146,326.928253 538.106018,326.964996 
	C529.121582,327.049255 520.134766,326.929871 511.151398,327.060333 
	C506.556000,327.127075 504.996368,329.181702 505.585083,333.809967 
	C505.752533,335.126373 505.990570,336.433777 506.238312,338.638794 
M596.100098,295.418457 
	C595.537598,300.530640 594.908325,305.636810 594.444824,310.757935 
	C594.252747,312.880402 593.981323,315.178375 597.014832,315.865814 
	C599.639526,316.460632 601.493835,316.547272 603.066223,313.495728 
	C605.926575,307.944458 611.798523,306.035309 617.923523,307.226318 
	C623.326294,308.276947 625.504028,312.645538 628.239502,316.500732 
	C629.161194,316.149689 629.890869,316.060211 630.360107,315.662994 
	C633.893372,312.672089 636.086609,297.850067 633.532959,293.845123 
	C632.546875,292.298584 632.242737,291.056396 633.203857,289.289673 
	C635.479126,285.107269 634.982300,284.289703 630.071289,284.214447 
	C622.425232,284.097321 614.776184,284.182373 607.128357,284.175385 
	C597.518677,284.166565 596.786926,284.857025 596.100098,295.418457 
M404.838959,448.093597 
	C384.303528,444.303589 372.908081,432.497650 369.598602,411.613159 
	C369.400299,410.361938 369.462158,408.922302 367.860931,408.229187 
	C365.507050,409.722748 363.169037,411.099548 360.194580,411.388092 
	C356.548248,411.741852 355.000153,414.262512 355.859436,417.782684 
	C361.701721,441.715942 382.063629,459.481659 411.852081,451.250610 
	C412.919861,450.955597 414.649323,450.923096 414.530334,448.724182 
	C411.649231,447.754120 408.640411,448.463440 404.838959,448.093597 
M456.919189,494.437469 
	C458.653168,493.871704 460.461090,493.467255 462.108337,492.712311 
	C469.254669,489.437286 472.791199,480.639832 469.958466,473.419495 
	C467.020233,465.930267 458.308624,461.905670 450.696655,464.520844 
	C443.563202,466.971619 438.431732,474.500946 439.488617,480.966309 
	C440.759430,488.740356 447.595795,494.328400 456.919189,494.437469 
M603.218689,464.605347 
	C601.879517,465.272552 600.451111,465.805939 599.216492,466.629730 
	C593.247009,470.612854 590.971008,478.542267 593.806519,485.186340 
	C596.614136,491.765045 604.270935,495.750549 610.964783,494.117554 
	C619.761597,491.971558 625.264709,483.932434 623.391663,475.963928 
	C621.261902,466.903229 613.556946,462.318970 603.218689,464.605347 
M597.846680,370.700745 
	C598.231140,369.533600 596.653931,368.203156 598.077087,367.094757 
	C601.239868,368.667694 604.309814,375.477692 602.657715,377.918610 
	C599.853577,382.061676 598.013306,377.912933 595.853149,376.801056 
	C594.007690,375.851135 592.634338,376.763550 591.408386,377.967346 
	C590.500244,378.859070 589.983337,380.508881 591.062012,381.031982 
	C594.596863,382.746185 597.841309,384.694763 600.195190,387.924927 
	C600.336365,388.118591 600.819946,388.108795 601.145142,388.112762 
	C601.810425,388.120850 610.063721,378.620514 609.696289,378.266571 
	C607.411255,376.065216 609.164551,372.820312 607.684082,370.588654 
	C605.851440,367.826080 606.594299,366.101532 608.661133,363.737000 
	C615.220459,356.232544 613.284546,349.321686 604.057922,346.126404 
	C598.500549,344.201782 593.875610,346.442169 591.364502,351.758972 
	C588.846741,357.089508 591.645752,360.943542 594.603760,364.630585 
	C590.883179,369.217834 589.968262,372.788300 592.241089,373.901764 
	C594.779846,375.145630 596.680969,373.900299 597.846680,370.700745 
M702.671570,287.173431 
	C702.267273,287.700409 701.895325,288.256348 701.453735,288.749969 
	C695.574219,295.322784 696.579529,304.313263 693.442200,311.881317 
	C692.337158,314.546936 694.512207,317.258362 696.882446,319.101135 
	C698.841797,320.624390 700.662964,320.716339 702.672668,318.950378 
	C703.440369,318.275818 704.842224,318.249023 705.977844,318.080902 
	C709.498474,317.559784 711.850525,315.608765 712.535522,312.167358 
	C713.269287,308.480652 710.875671,306.394043 708.065247,304.572510 
	C705.952087,303.202911 703.093201,303.263824 701.066956,301.216827 
	C703.458557,299.379700 705.901978,300.290955 708.121033,299.917969 
	C711.185303,299.402954 713.840271,297.935883 714.348267,294.967957 
	C714.990479,291.215973 713.428040,287.739807 710.294373,285.379089 
	C707.620911,283.365051 705.288391,284.772308 702.671570,287.173431 
M615.217712,359.455627 
	C615.625366,366.296906 619.915222,370.993042 625.383789,370.584595 
	C631.234558,370.147614 639.312500,361.290710 638.539978,356.159668 
	C637.639771,350.180054 631.528870,345.921478 623.893250,345.952393 
	C618.129456,345.975708 616.236145,348.125732 615.403198,355.632690 
	C615.293213,356.624084 615.273926,357.625519 615.217712,359.455627 
M454.139954,204.493195 
	C449.512390,203.782990 446.441040,207.978897 441.987061,208.219955 
	C436.213501,208.532455 432.474731,216.719910 435.602509,221.737198 
	C437.045654,224.052109 438.924225,225.938187 441.999268,225.713272 
	C444.913605,225.500092 446.874146,223.898438 448.195038,221.367386 
	C448.716064,220.368973 448.575928,219.028809 449.962769,218.231506 
	C452.998627,219.060364 456.241730,221.175583 459.411560,217.893494 
	C463.918365,213.227066 461.963654,207.422195 454.139954,204.493195 
M627.470764,341.284088 
	C634.269653,344.137573 640.220154,342.646027 643.080383,337.371368 
	C645.697144,332.545715 643.483459,324.290222 638.863220,321.449799 
	C636.910034,320.248962 634.873718,319.818298 632.701660,320.566223 
	C624.826294,323.278137 621.680542,334.339874 627.470764,341.284088 
M605.633850,317.139496 
	C605.140747,322.134949 607.247803,326.169159 610.345520,329.827209 
	C612.333191,332.174347 614.862793,332.613739 617.562988,331.458374 
	C621.159912,329.919373 625.096375,321.012085 623.955811,317.222992 
	C622.797180,313.373779 620.280701,310.790283 616.229980,310.402435 
	C611.486938,309.948303 607.760254,311.720093 605.633850,317.139496 
M596.468445,341.725098 
	C600.560791,342.437500 600.216675,338.308502 602.114319,336.681366 
	C606.688477,332.759369 604.485596,329.894806 601.297241,326.836853 
	C600.233704,325.816864 599.077209,324.752960 598.426208,323.473480 
	C597.140381,320.946777 595.231812,320.932922 592.953186,321.553314 
	C587.711060,322.980469 585.242432,326.916290 585.513611,333.466492 
	C585.700745,337.984863 589.096680,340.741333 596.468445,341.725098 
M638.364563,310.565033 
	C638.246460,311.557434 638.047180,312.547974 638.024048,313.542603 
	C637.910889,318.411560 642.438904,319.748016 645.309814,321.218658 
	C648.573669,322.890594 648.908813,318.323364 650.149109,316.268494 
	C651.895386,313.375519 649.071411,312.142059 647.506226,310.633240 
	C646.028015,309.208282 645.452026,307.654083 645.934875,305.697083 
	C646.456665,303.582184 648.192505,303.873718 649.823975,303.455933 
	C653.921936,302.406647 658.374451,302.520538 662.177002,300.251892 
	C659.301636,294.326080 657.996948,293.898315 652.877197,296.879028 
	C651.007507,297.967529 649.122803,299.718781 647.163391,299.839050 
	C640.645691,300.239166 639.001953,304.398987 638.364563,310.565033 
M432.539978,207.053772 
	C430.595123,201.890137 426.101074,203.105286 422.355347,203.356918 
	C417.746735,203.666534 415.571289,207.294159 416.445587,213.025604 
	C417.052032,217.001251 419.852417,218.968948 423.866364,218.904404 
	C429.279510,218.817352 432.391937,214.828796 432.539978,207.053772 
M684.757751,303.346161 
	C682.780212,302.906189 680.778625,302.859528 678.846375,303.431061 
	C675.771301,304.340637 673.504517,306.082458 673.297119,309.613434 
	C673.088684,313.162720 674.647461,315.846069 677.806946,317.218292 
	C681.408936,318.782776 684.705505,317.935120 686.990051,314.599274 
	C689.753662,310.563904 689.351501,306.833710 684.757751,303.346161 
M461.878784,186.851624 
	C459.932068,184.830032 458.079285,182.266891 454.783905,184.230347 
	C451.074890,186.440292 449.227966,191.513138 450.452789,195.535858 
	C451.284149,198.266190 452.827820,200.316208 455.901520,200.577362 
	C458.978455,200.838837 461.567657,199.555710 463.087372,197.015533 
	C465.000153,193.818390 463.328857,190.607803 461.878784,186.851624 
M441.253998,174.353775 
	C436.125366,175.021133 432.972534,178.199997 433.517120,182.154556 
	C434.136292,186.650711 437.336487,190.059265 440.628082,189.728607 
	C445.264801,189.262833 448.452911,185.272034 447.760895,180.648117 
	C447.263153,177.322144 445.083710,175.434036 441.253998,174.353775 
M428.761902,184.997253 
	C425.969666,181.551331 423.028503,181.954208 419.680084,184.326157 
	C415.641144,187.187241 415.516632,190.709106 417.258881,194.799713 
	C418.775269,198.359955 421.782990,198.372314 424.799713,197.754440 
	C428.871979,196.920410 430.569763,191.933075 428.761902,184.997253 
M679.760010,299.792633 
	C686.610046,299.383636 687.850220,296.868988 684.084106,290.994110 
	C683.365723,289.873474 682.694641,288.697388 681.821106,287.705963 
	C679.182983,284.711517 675.912292,284.766724 673.215088,287.691528 
	C669.058411,292.199005 671.836731,299.573486 679.760010,299.792633 
M570.655640,353.375916 
	C568.985901,351.616760 567.463989,352.531982 565.752869,353.455017 
	C561.966187,355.497559 558.371643,357.991455 553.987854,358.745422 
	C552.426819,359.013916 550.275146,358.909424 550.537415,361.355469 
	C550.751648,363.353302 552.142883,364.646179 554.198120,364.881897 
	C565.154358,366.138580 567.813110,366.321716 570.655640,353.375916 
M696.965881,290.490509 
	C698.207275,288.444763 699.086731,286.272095 698.515137,283.849426 
	C697.767517,280.680939 696.154541,278.294678 692.468445,278.301300 
	C689.513489,278.306580 687.307617,279.574493 686.314209,282.453888 
	C685.197876,285.689453 687.555054,292.392914 690.325073,293.558014 
	C693.042480,294.700928 695.190491,293.743195 696.965881,290.490509 
M394.321991,216.813660 
	C390.996918,222.710678 396.282593,221.797821 399.051331,222.556839 
	C399.271759,223.305832 399.439423,223.772827 399.545563,224.253403 
	C400.075745,226.653595 400.994629,228.985092 403.793793,229.041733 
	C406.451080,229.095520 407.321167,226.877319 407.613129,224.601929 
	C407.809692,223.070190 408.414917,222.166763 410.031891,221.981644 
	C411.724640,221.787872 413.557373,221.481094 413.399200,219.199997 
	C413.286499,217.574921 412.024017,216.580643 410.593323,215.977097 
	C408.361847,215.035721 407.840210,216.900085 406.878784,218.238113 
	C404.160004,222.021713 402.658112,221.995224 400.015167,217.798431 
	C398.576294,215.513565 397.194855,214.619522 394.321991,216.813660 
M560.824829,348.342590 
	C562.130188,349.128815 563.046021,351.050110 565.601318,349.534363 
	C564.150330,344.866547 557.982178,345.387360 556.208008,341.011230 
	C554.433960,336.635254 554.697083,332.331329 555.276001,327.742188 
	C551.661438,326.579071 549.862000,328.060120 549.481384,331.217102 
	C549.145020,334.007965 549.315979,336.859283 549.250793,339.683655 
	C549.163452,343.471008 550.724670,345.724792 554.782654,345.729431 
	C556.878967,345.731842 558.614380,346.706421 560.824829,348.342590 
M650.017090,354.791718 
	C648.322327,353.448975 645.566528,355.757294 644.166504,353.025543 
	C644.883545,349.470428 648.212646,349.694672 650.658875,348.657684 
	C654.010803,347.236755 654.190491,346.437988 651.123596,343.051453 
	C650.417114,344.411072 649.732788,345.728119 648.384583,348.322845 
	C647.202148,345.849182 646.624329,344.640472 646.171326,343.692780 
	C641.047058,346.149567 637.165955,348.382355 642.193848,353.696838 
	C642.672607,354.202911 642.688110,355.265625 642.701599,356.073547 
	C642.770996,360.233002 646.633545,361.080261 648.901062,360.990509 
	C652.126038,360.862976 650.603699,357.511292 650.017090,354.791718 
M367.755035,390.495087 
	C365.617249,390.907074 363.469116,391.056824 361.398895,390.256561 
	C359.479248,389.514496 358.102966,390.069397 357.406769,391.912170 
	C355.983215,395.680115 354.485596,399.473267 356.099121,405.311401 
	C358.723450,397.990265 363.313843,395.747559 369.404327,395.461517 
	C371.569275,395.359802 372.256653,393.088104 371.954346,390.977112 
	C370.820801,390.017365 369.635345,390.442139 367.755035,390.495087 
M581.209106,332.654755 
	C582.391785,330.272888 582.685608,327.706085 579.451904,327.306244 
	C573.141785,326.526001 566.774292,326.764801 560.358826,327.779602 
	C564.096497,330.321228 566.239075,334.067963 569.049194,337.464905 
	C569.747131,336.560028 570.199341,336.081573 570.528992,335.529938 
	C574.729126,328.501495 574.724670,328.498840 581.209106,332.654755 
M329.436310,199.941605 
	C325.320831,195.421021 320.501099,197.794250 315.698486,198.490906 
	C319.826294,200.769669 324.742676,201.615005 325.599365,207.661514 
	C326.012482,210.577179 329.122742,209.193695 331.033417,208.519669 
	C333.137726,207.777328 332.934601,206.071838 332.071014,204.434235 
	C331.379120,203.122192 330.564026,201.875153 329.436310,199.941605 
M384.860870,374.454346 
	C385.673492,371.735901 385.690704,368.947540 381.947601,369.567413 
	C377.233887,370.348053 373.131714,372.792175 369.539093,376.352386 
	C377.887329,380.983154 377.928375,380.978363 384.860870,374.454346 
M387.940643,199.562698 
	C394.983887,201.738052 397.637207,200.888504 401.889343,195.011856 
	C398.191589,190.228546 393.874817,193.063370 389.670380,193.943573 
	C386.309418,194.647217 385.433899,196.207611 387.940643,199.562698 
M740.537048,275.953247 
	C733.608337,278.544495 731.440002,284.392212 729.741577,291.173431 
	C734.316040,291.391602 735.776367,288.526001 736.581787,285.528473 
	C737.865845,280.749451 740.642395,278.106964 745.573792,277.550751 
	C746.897095,277.401459 748.690613,277.380646 748.764709,275.022278 
	C746.091125,273.458649 743.672241,274.845612 740.537048,275.953247 
M359.482635,202.021683 
	C360.506958,198.665985 358.871490,197.435394 355.772186,197.400284 
	C353.466583,197.374161 351.159607,197.329132 348.855164,197.379608 
	C347.101807,197.417999 344.750275,197.006805 344.597809,199.531296 
	C344.461853,201.782333 346.389099,203.269562 348.389679,203.417297 
	C351.915497,203.677643 355.604675,204.808395 359.482635,202.021683 
M401.643738,201.465744 
	C401.132935,206.245056 405.039001,208.424347 407.976379,210.317810 
	C410.378845,211.866501 412.319641,209.466187 411.612976,206.549088 
	C410.401459,201.547928 406.001068,201.604126 401.643738,201.465744 
M666.930542,294.905182 
	C668.261719,290.577362 666.653259,288.604370 659.024109,285.206909 
	C658.226196,289.993713 660.845764,293.589447 666.930542,294.905182 
M581.629883,350.625488 
	C584.779785,350.726654 585.412354,348.392761 585.729675,346.079193 
	C586.092712,343.432404 584.426147,341.984192 582.068237,340.756470 
	C580.190491,344.064178 577.215210,346.838043 581.629883,350.625488 
M649.610596,336.540527 
	C651.860168,335.611176 654.093689,334.363281 653.571655,331.579193 
	C653.176086,329.469788 651.731140,327.711121 648.795471,327.761292 
	C647.919617,330.723846 646.856812,333.579590 649.610596,336.540527 
M398.021545,206.401993 
	C393.307678,206.675552 391.377441,208.496979 393.086029,211.143799 
	C393.960907,212.499100 395.379974,214.298187 397.049072,212.854080 
	C398.745758,211.386093 401.117004,209.465927 398.021545,206.401993 
M370.437561,453.712494 
	C371.975006,453.605896 373.902039,453.380371 373.394165,451.393921 
	C372.786285,449.016602 370.565063,448.071533 367.981812,447.420135 
	C367.233673,450.104614 366.307404,452.438660 370.437561,453.712494 
M311.313141,217.764206 
	C312.076660,216.857285 313.789490,216.407227 312.776398,214.537140 
	C310.546265,214.087570 308.322418,213.813889 306.017548,215.551010 
	C306.998840,217.712982 307.013855,221.035660 311.313141,217.764206 
M491.801483,219.448090 
	C494.017700,219.189255 495.332977,218.094589 494.338867,215.820190 
	C493.768799,214.516006 492.279114,213.948624 490.970703,214.913345 
	C489.035553,216.340118 489.092255,217.895096 491.801483,219.448090 
M734.000427,273.242340 
	C736.156494,273.823059 737.070374,272.537720 737.236755,270.758606 
	C737.331421,269.746704 736.279297,268.770905 735.324341,268.929718 
	C733.088257,269.301453 733.382690,271.111359 734.000427,273.242340 
M670.192383,306.486481 
	C670.798706,305.010651 671.041077,303.550568 669.172974,302.876923 
	C668.285400,302.556824 667.516357,303.293152 667.470581,304.149719 
	C667.389160,305.674225 666.904297,307.771179 670.192383,306.486481 
z"/>
<path fill="#000000" opacity="1.000000" stroke="none" 
	d="
M323.176605,281.802185 
	C323.045410,280.131958 322.778748,278.738556 324.376251,278.024719 
	C326.370605,278.122772 326.773224,279.700043 326.996979,281.132233 
	C327.719238,285.755707 329.456238,289.804596 333.562378,292.323273 
	C336.139832,293.904236 333.751678,295.946411 334.213989,297.562256 
	C341.428925,300.038879 341.739258,300.560883 340.130859,307.985565 
	C339.569122,310.578888 338.865631,313.142334 338.193481,315.710632 
	C337.803711,317.200043 337.227570,318.806274 335.431610,318.757141 
	C333.685181,318.709351 333.084381,317.143036 332.699890,315.630463 
	C332.413422,314.503479 332.047333,313.388885 331.862518,312.245178 
	C330.689728,304.987823 327.855286,298.893829 320.630859,295.747742 
	C320.062592,295.500305 319.616058,294.915100 319.192993,294.418640 
	C319.002197,294.194794 319.008240,293.803192 318.917175,293.458099 
	C322.448792,287.601105 326.538452,295.623352 330.942322,292.696136 
	C327.917786,289.373566 324.604431,286.391205 323.176605,281.802185 
z"/>
</svg>